<svg class="main-svg" xmlns="http://www.w3.org/2000/svg" xmlns:xlink="http://www.w3.org/1999/xlink" width="700" height="500" style="" viewBox="0 0 700 500"><rect x="0" y="0" width="700" height="500" style="fill: rgb(255, 255, 255); fill-opacity: 1;"/><defs id="defs-7c1a24"><g class="clips"><clipPath id="clip7c1a24xyplot" class="plotclip"><rect width="481" height="360"/></clipPath><clipPath class="axesclip" id="clip7c1a24x"><rect x="80" y="0" width="481" height="500"/></clipPath><clipPath class="axesclip" id="clip7c1a24y"><rect x="0" y="60" width="700" height="360"/></clipPath><clipPath class="axesclip" id="clip7c1a24xy"><rect x="80" y="60" width="481" height="360"/></clipPath></g><g class="gradients"/><g class="patterns"/></defs><g class="bglayer"><rect class="bg" x="80" y="60" width="481" height="360" style="fill: rgb(229, 236, 246); fill-opacity: 1; stroke-width: 0;"/></g><g class="layer-below"><g class="imagelayer"/><g class="shapelayer"/></g><g class="cartesianlayer"><g class="subplot xy"><g class="layer-subplot"><g class="shapelayer"/><g class="imagelayer"/></g><g class="minor-gridlayer"><g class="x"/><g class="y"/></g><g class="gridlayer"><g class="x"/><g class="y"><path class="ygrid crisp" transform="translate(0,348)" d="M80,0h481" style="stroke: rgb(255, 255, 255); stroke-opacity: 1; stroke-width: 1px;"/><path class="ygrid crisp" transform="translate(0,276)" d="M80,0h481" style="stroke: rgb(255, 255, 255); stroke-opacity: 1; stroke-width: 1px;"/><path class="ygrid crisp" transform="translate(0,204)" d="M80,0h481" style="stroke: rgb(255, 255, 255); stroke-opacity: 1; stroke-width: 1px;"/><path class="ygrid crisp" transform="translate(0,132)" d="M80,0h481" style="stroke: rgb(255, 255, 255); stroke-opacity: 1; stroke-width: 1px;"/></g></g><g class="zerolinelayer"><path class="yzl zl crisp" transform="translate(0,420)" d="M80,0h481" style="stroke: rgb(255, 255, 255); stroke-opacity: 1; stroke-width: 2px;"/></g><path class="xlines-below"/><path class="ylines-below"/><g class="overlines-below"/><g class="xaxislayer-below"/><g class="yaxislayer-below"/><g class="overaxes-below"/><g class="plot" transform="translate(80,60)" clip-path="url(#clip7c1a24xyplot)"><g class="violinlayer mlayer"><g class="trace violins" style="opacity: 1;"><path class="violin" d="M80.32,351Q80.4,350.62 80.47,350.43C80.54,350.24 80.62,350.05 80.73,349.87C80.85,349.68 80.99,349.49 81.16,349.31C81.35,349.11 81.57,348.93 81.82,348.75C82.1,348.55 82.43,348.37 82.79,348.19C83.2,347.99 83.67,347.8 84.17,347.62C84.74,347.42 85.37,347.24 86.03,347.06C86.77,346.86 87.59,346.68 88.42,346.5C89.33,346.3 90.3,346.12 91.28,345.94C92.32,345.75 93.41,345.56 94.5,345.37C95.63,345.18 96.79,345 97.94,344.81C99.11,344.62 100.28,344.44 101.46,344.25C102.64,344.06 103.82,343.88 105,343.69C106.18,343.5 107.36,343.32 108.53,343.13C109.69,342.94 110.86,342.75 111.99,342.56C113.08,342.38 114.18,342.2 115.19,342C116.1,341.82 117.03,341.65 117.77,341.44C118.36,341.27 119.07,341.15 119.31,340.88C119.45,340.72 119.53,340.47 119.45,340.31C119.32,340.06 118.64,339.92 118.12,339.75C117.41,339.53 116.47,339.37 115.55,339.19C114.51,338.99 113.34,338.81 112.2,338.63C111.01,338.44 109.76,338.26 108.55,338.07C107.36,337.88 106.15,337.69 104.99,337.5C103.88,337.32 102.78,337.13 101.74,336.94C100.77,336.76 99.82,336.58 98.93,336.38C98.11,336.2 97.32,336.02 96.58,335.82C95.92,335.64 95.29,335.45 94.71,335.25C94.2,335.07 93.71,334.89 93.27,334.69C92.88,334.51 92.53,334.33 92.2,334.13C91.91,333.95 91.65,333.76 91.39,333.57C91.14,333.39 90.91,333.2 90.67,333.01C90.42,332.82 90.18,332.62 89.92,332.44C89.64,332.25 89.35,332.06 89.04,331.88C88.72,331.69 88.37,331.5 88.03,331.32C87.68,331.13 87.31,330.95 86.95,330.76C86.59,330.57 86.22,330.38 85.87,330.19C85.53,330 85.19,329.82 84.87,329.63C84.56,329.45 84.27,329.26 83.99,329.07C83.72,328.89 83.46,328.7 83.21,328.51C82.97,328.33 82.74,328.14 82.52,327.95C82.31,327.76 82.1,327.57 81.91,327.38C81.72,327.2 81.54,327.01 81.38,326.82C81.22,326.64 81.08,326.45 80.95,326.26C80.83,326.08 80.73,325.89 80.64,325.7C80.55,325.51 80.48,325.32 80.43,325.13C80.38,324.94 80.34,324.76 80.32,324.57C80.3,324.38 80.3,324.2 80.3,324.01C80.3,323.82 80.32,323.64 80.35,323.45C80.38,323.26 80.43,323.08 80.49,322.89C80.55,322.7 80.62,322.51 80.71,322.32C80.8,322.13 80.9,321.95 81.01,321.76C81.12,321.57 81.24,321.39 81.35,321.2C81.46,321.01 81.58,320.83 81.67,320.64C81.76,320.45 81.85,320.26 81.89,320.07C81.93,319.89 81.95,319.7 81.94,319.51C81.93,319.32 81.88,319.13 81.82,318.95C81.76,318.76 81.66,318.57 81.56,318.39C81.46,318.2 81.33,318.02 81.22,317.83C81.11,317.64 80.99,317.45 80.89,317.26C80.79,317.07 80.69,316.89 80.61,316.7C80.53,316.52 80.46,316.33 80.41,316.14C80.36,315.96 80.32,315.77 80.29,315.58C80.26,315.39 80.25,315.2 80.23,315.01C80.22,314.82 80.2,314.64 80.2,314.45C80.2,314.26 80.2,314.08 80.2,313.89C80.2,313.7 80.21,313.52 80.22,313.33C80.23,313.14 80.25,312.96 80.27,312.77C80.29,312.58 80.32,312.39 80.36,312.2C80.4,312.01 80.45,311.83 80.5,311.64C80.55,311.45 80.61,311.27 80.67,311.08C80.73,310.89 80.8,310.71 80.85,310.52C80.91,310.33 80.96,310.14 81,309.95C81.04,309.76 81.07,309.58 81.08,309.39C81.09,309.2 81.08,309.02 81.06,308.83C81.04,308.64 81,308.46 80.95,308.27C80.9,308.08 80.84,307.9 80.78,307.71C80.72,307.52 80.66,307.33 80.6,307.14C80.54,306.95 80.49,306.77 80.44,306.58C80.39,306.39 80.35,306.21 80.32,306.02C80.29,305.83 80.26,305.65 80.24,305.46C80.22,305.27 80.21,305.08 80.2,304.89C80.19,304.7 80.19,304.52 80.18,304.33C80.18,304.14 80.17,303.96 80.17,303.77C80.17,303.58 80.17,303.4 80.17,303.21C80.17,303.02 80.17,302.84 80.17,302.65C80.17,302.46 80.17,302.27 80.17,302.08C80.17,301.89 80.17,301.71 80.17,301.52C80.17,301.33 80.17,301.15 80.17,300.96C80.17,300.77 80.17,300.59 80.17,300.4C80.17,300.21 80.17,300.02 80.17,299.83C80.17,299.64 80.17,299.46 80.17,299.27C80.17,299.08 80.18,298.9 80.18,298.71C80.18,298.52 80.18,298.34 80.19,298.15C80.2,297.96 80.21,297.78 80.22,297.59C80.24,297.4 80.25,297.21 80.28,297.02C80.31,296.83 80.34,296.65 80.38,296.46C80.42,296.27 80.47,296.09 80.52,295.9C80.57,295.71 80.64,295.53 80.7,295.34C80.76,295.15 80.84,294.96 80.9,294.77C80.96,294.58 81.03,294.4 81.08,294.21C81.13,294.02 81.17,293.84 81.21,293.65C81.24,293.46 81.27,293.28 81.29,293.09C81.31,292.9 81.31,292.72 81.32,292.53C81.33,292.34 81.32,292.15 81.32,291.96C81.32,291.77 81.32,291.59 81.32,291.4C81.32,291.21 81.3,291.03 81.29,290.84C81.27,290.65 81.26,290.47 81.23,290.28C81.2,290.09 81.15,289.9 81.1,289.71C81.05,289.52 80.99,289.34 80.93,289.15C80.87,288.96 80.79,288.78 80.73,288.59C80.67,288.4 80.61,288.22 80.55,288.03C80.5,287.84 80.44,287.66 80.4,287.47Q80.36,287.28 80.29,286.9L80.04,286.9Q79.98,287.28 79.94,287.47C79.9,287.66 79.85,287.84 79.79,288.03C79.73,288.22 79.66,288.4 79.6,288.59C79.53,288.78 79.46,288.96 79.4,289.15C79.34,289.34 79.28,289.52 79.23,289.71C79.18,289.9 79.14,290.09 79.11,290.28C79.08,290.47 79.06,290.65 79.04,290.84C79.02,291.03 79.01,291.21 79.01,291.4C79.01,291.59 79.01,291.77 79.01,291.96C79.01,292.15 79.01,292.34 79.02,292.53C79.03,292.72 79.03,292.9 79.05,293.09C79.07,293.28 79.09,293.46 79.12,293.65C79.15,293.84 79.2,294.02 79.25,294.21C79.3,294.4 79.37,294.58 79.43,294.77C79.49,294.96 79.57,295.15 79.63,295.34C79.69,295.53 79.75,295.71 79.81,295.9C79.86,296.09 79.92,296.27 79.96,296.46C80,296.65 80.03,296.83 80.05,297.02C80.08,297.21 80.09,297.4 80.11,297.59C80.12,297.78 80.13,297.96 80.14,298.15C80.15,298.34 80.16,298.52 80.16,298.71C80.16,298.9 80.16,299.08 80.16,299.27C80.16,299.46 80.17,299.64 80.17,299.83C80.17,300.02 80.17,300.21 80.17,300.4C80.17,300.59 80.17,300.77 80.17,300.96C80.17,301.15 80.17,301.33 80.17,301.52C80.17,301.71 80.17,301.89 80.17,302.08C80.17,302.27 80.17,302.46 80.17,302.65C80.17,302.84 80.16,303.02 80.16,303.21C80.16,303.4 80.16,303.58 80.16,303.77C80.16,303.96 80.15,304.14 80.15,304.33C80.14,304.52 80.14,304.7 80.13,304.89C80.12,305.08 80.11,305.27 80.09,305.46C80.07,305.65 80.04,305.83 80.01,306.02C79.98,306.21 79.94,306.39 79.89,306.58C79.84,306.77 79.79,306.95 79.73,307.14C79.67,307.33 79.61,307.52 79.55,307.71C79.49,307.9 79.43,308.08 79.38,308.27C79.33,308.46 79.29,308.64 79.27,308.83C79.25,309.02 79.24,309.2 79.25,309.39C79.26,309.58 79.29,309.76 79.33,309.95C79.37,310.14 79.42,310.33 79.48,310.52C79.53,310.71 79.6,310.89 79.66,311.08C79.72,311.27 79.78,311.45 79.83,311.64C79.88,311.83 79.93,312.01 79.97,312.2C80.01,312.39 80.03,312.58 80.06,312.77C80.08,312.96 80.11,313.14 80.12,313.33C80.13,313.52 80.14,313.7 80.14,313.89C80.14,314.08 80.14,314.26 80.14,314.45C80.14,314.64 80.13,314.82 80.11,315.01C80.09,315.2 80.07,315.39 80.04,315.58C80.01,315.77 79.97,315.96 79.92,316.14C79.87,316.33 79.8,316.52 79.72,316.7C79.64,316.89 79.55,317.07 79.45,317.26C79.35,317.45 79.22,317.64 79.11,317.83C79,318.02 78.88,318.2 78.78,318.39C78.68,318.57 78.58,318.76 78.51,318.95C78.45,319.13 78.4,319.32 78.39,319.51C78.38,319.7 78.41,319.89 78.45,320.07C78.49,320.26 78.57,320.45 78.66,320.64C78.75,320.83 78.87,321.01 78.98,321.2C79.09,321.39 79.21,321.57 79.32,321.76C79.43,321.95 79.53,322.13 79.62,322.32C79.71,322.51 79.79,322.7 79.85,322.89C79.91,323.08 79.95,323.26 79.98,323.45C80.01,323.64 80.04,323.82 80.04,324.01C80.04,324.2 80.03,324.38 80.01,324.57C79.99,324.76 79.95,324.94 79.9,325.13C79.85,325.32 79.78,325.51 79.7,325.7C79.61,325.89 79.5,326.08 79.38,326.26C79.25,326.45 79.11,326.64 78.95,326.82C78.79,327.01 78.61,327.2 78.42,327.38C78.23,327.57 78.02,327.76 77.81,327.95C77.59,328.14 77.36,328.33 77.12,328.51C76.87,328.7 76.62,328.89 76.35,329.07C76.07,329.26 75.77,329.45 75.46,329.63C75.14,329.82 74.8,330 74.46,330.19C74.11,330.38 73.75,330.57 73.39,330.76C73.03,330.95 72.65,331.13 72.3,331.32C71.96,331.5 71.61,331.69 71.29,331.88C70.99,332.06 70.7,332.25 70.42,332.44C70.15,332.62 69.91,332.82 69.66,333.01C69.42,333.2 69.2,333.39 68.95,333.57C68.69,333.76 68.43,333.95 68.13,334.13C67.8,334.33 67.45,334.51 67.06,334.69C66.62,334.89 66.14,335.07 65.63,335.25C65.05,335.45 64.41,335.64 63.75,335.82C63.01,336.02 62.22,336.2 61.4,336.38C60.51,336.58 59.56,336.76 58.59,336.94C57.55,337.13 56.46,337.32 55.35,337.5C54.19,337.69 52.99,337.88 51.79,338.07C50.58,338.26 49.32,338.44 48.13,338.63C46.99,338.81 45.82,338.99 44.78,339.19C43.86,339.37 42.92,339.53 42.21,339.75C41.69,339.92 41.02,340.06 40.89,340.31C40.81,340.47 40.89,340.72 41.03,340.88C41.27,341.15 41.98,341.27 42.56,341.44C43.3,341.66 44.24,341.82 45.15,342C46.16,342.2 47.26,342.38 48.35,342.56C49.48,342.75 50.65,342.94 51.81,343.13C52.98,343.32 54.16,343.5 55.34,343.69C56.52,343.88 57.69,344.06 58.87,344.25C60.04,344.44 61.22,344.62 62.39,344.81C63.54,345 64.7,345.18 65.83,345.37C66.92,345.56 68.01,345.75 69.05,345.94C70.03,346.12 71,346.3 71.91,346.5C72.74,346.68 73.56,346.86 74.3,347.06C74.96,347.24 75.59,347.42 76.16,347.62C76.66,347.8 77.13,347.99 77.54,348.19C77.9,348.37 78.24,348.55 78.52,348.75C78.77,348.93 78.98,349.11 79.17,349.31C79.34,349.49 79.48,349.68 79.6,349.87C79.71,350.05 79.79,350.24 79.86,350.43Q79.93,350.62 80.02,351Z" style="vector-effect: non-scaling-stroke; stroke-width: 2px; stroke: rgb(99, 110, 250); stroke-opacity: 1; fill: rgb(99, 110, 250); fill-opacity: 0.5;"/><path class="box" d="M70.35,340.04H89.99M70.35,342.17H89.99V336.75H70.35ZM80.17,342.17V347.61M80.17,336.75V329.04" style="vector-effect: non-scaling-stroke; stroke-width: 2px; stroke: rgb(99, 110, 250); stroke-opacity: 1; fill: rgb(99, 110, 250); fill-opacity: 0.5;"/><g class="points"><path class="point" transform="translate(80.17,328.2)" d="M3,0A3,3 0 1,1 0,-3A3,3 0 0,1 3,0Z" style="opacity: 1; stroke-width: 0px; fill: rgb(99, 110, 250); fill-opacity: 1;"/><path class="point" transform="translate(80.17,320.06)" d="M3,0A3,3 0 1,1 0,-3A3,3 0 0,1 3,0Z" style="opacity: 1; stroke-width: 0px; fill: rgb(99, 110, 250); fill-opacity: 1;"/><path class="point" transform="translate(80.17,319.18)" d="M3,0A3,3 0 1,1 0,-3A3,3 0 0,1 3,0Z" style="opacity: 1; stroke-width: 0px; fill: rgb(99, 110, 250); fill-opacity: 1;"/><path class="point" transform="translate(80.17,309.22)" d="M3,0A3,3 0 1,1 0,-3A3,3 0 0,1 3,0Z" style="opacity: 1; stroke-width: 0px; fill: rgb(99, 110, 250); fill-opacity: 1;"/><path class="point" transform="translate(80.17,293.55)" d="M3,0A3,3 0 1,1 0,-3A3,3 0 0,1 3,0Z" style="opacity: 1; stroke-width: 0px; fill: rgb(99, 110, 250); fill-opacity: 1;"/><path class="point" transform="translate(80.17,290.29)" d="M3,0A3,3 0 1,1 0,-3A3,3 0 0,1 3,0Z" style="opacity: 1; stroke-width: 0px; fill: rgb(99, 110, 250); fill-opacity: 1;"/></g></g><g class="trace violins" style="opacity: 1;"><path class="violin" d="M240.88,349.65Q241.12,348.98 241.31,348.66C241.52,348.32 241.78,347.98 242.09,347.67C242.44,347.32 242.87,347 243.34,346.69C243.88,346.34 244.52,346.01 245.19,345.7C245.95,345.35 246.8,345.03 247.67,344.71C248.62,344.37 249.66,344.05 250.69,343.73C251.77,343.39 252.92,343.07 254.03,342.74C255.14,342.41 256.28,342.09 257.35,341.75C258.36,341.43 259.39,341.12 260.29,340.77C261.09,340.46 261.88,340.15 262.5,339.78C263.01,339.48 263.53,339.17 263.79,338.79C264,338.49 264.13,338.13 264.1,337.81C264.07,337.47 263.82,337.13 263.57,336.82C263.28,336.46 262.84,336.14 262.41,335.83C261.94,335.48 261.4,335.17 260.86,334.85C260.3,334.51 259.7,334.19 259.1,333.86C258.49,333.53 257.87,333.2 257.25,332.87C256.62,332.54 255.98,332.22 255.34,331.89C254.69,331.56 254.04,331.23 253.39,330.9C252.74,330.57 252.09,330.24 251.46,329.91C250.84,329.59 250.22,329.27 249.63,328.93C249.07,328.61 248.52,328.28 248.01,327.94C247.53,327.62 247.08,327.29 246.67,326.95C246.29,326.63 245.95,326.31 245.64,325.97C245.35,325.65 245.09,325.32 244.86,324.98C244.64,324.66 244.45,324.33 244.29,323.99C244.13,323.67 244.01,323.34 243.9,323.01C243.79,322.68 243.71,322.35 243.65,322.02C243.59,321.69 243.55,321.36 243.52,321.03C243.49,320.7 243.49,320.38 243.48,320.05C243.47,319.72 243.47,319.39 243.47,319.06C243.46,318.73 243.46,318.4 243.45,318.07C243.44,317.74 243.42,317.42 243.39,317.09C243.36,316.76 243.33,316.43 243.29,316.1C243.25,315.77 243.19,315.44 243.13,315.11C243.07,314.78 243.01,314.46 242.94,314.13C242.87,313.8 242.79,313.47 242.71,313.14C242.63,312.81 242.55,312.48 242.46,312.15C242.38,311.82 242.28,311.5 242.2,311.17C242.11,310.84 242.03,310.51 241.95,310.18C241.87,309.85 241.79,309.52 241.72,309.19C241.65,308.86 241.59,308.54 241.54,308.21C241.48,307.88 241.43,307.55 241.39,307.22C241.35,306.89 241.31,306.56 241.29,306.23C241.27,305.9 241.25,305.58 241.26,305.25C241.27,304.92 241.29,304.59 241.33,304.26C241.37,303.93 241.42,303.6 241.49,303.27C241.56,302.94 241.66,302.62 241.75,302.29C241.84,301.96 241.94,301.63 242.03,301.3C242.12,300.97 242.21,300.64 242.27,300.31C242.33,299.98 242.38,299.66 242.4,299.33C242.42,299 242.41,298.67 242.38,298.34C242.35,298.01 242.29,297.68 242.21,297.35C242.13,297.02 242.02,296.7 241.92,296.37C241.81,296.04 241.69,295.71 241.58,295.38C241.47,295.05 241.36,294.72 241.27,294.39C241.18,294.06 241.1,293.74 241.04,293.41C240.98,293.08 240.94,292.75 240.92,292.42C240.9,292.09 240.9,291.76 240.91,291.43C240.92,291.1 240.95,290.78 240.99,290.45C241.03,290.12 241.09,289.79 241.14,289.46C241.2,289.13 241.26,288.8 241.32,288.47C241.38,288.14 241.45,287.82 241.5,287.49C241.56,287.16 241.61,286.83 241.65,286.5C241.69,286.17 241.73,285.84 241.75,285.51C241.77,285.18 241.78,284.86 241.77,284.53C241.76,284.2 241.73,283.87 241.7,283.54C241.66,283.21 241.62,282.88 241.56,282.55C241.5,282.22 241.43,281.9 241.36,281.57C241.29,281.24 241.21,280.91 241.14,280.58C241.07,280.25 241,279.92 240.94,279.59C240.88,279.26 240.82,278.94 240.77,278.61C240.72,278.28 240.68,277.95 240.65,277.62C240.62,277.29 240.6,276.96 240.58,276.63C240.56,276.3 240.55,275.98 240.54,275.65C240.53,275.32 240.51,274.99 240.51,274.66C240.51,274.33 240.51,274 240.51,273.67C240.51,273.34 240.5,273.02 240.5,272.69C240.5,272.36 240.5,272.03 240.5,271.7C240.5,271.37 240.5,271.04 240.5,270.71C240.5,270.38 240.5,270.06 240.5,269.73C240.5,269.4 240.5,269.07 240.5,268.74C240.5,268.41 240.5,268.08 240.5,267.75C240.5,267.42 240.5,267.1 240.5,266.77C240.5,266.44 240.5,266.11 240.5,265.78C240.5,265.45 240.5,265.12 240.5,264.79C240.5,264.46 240.5,264.14 240.5,263.81C240.5,263.48 240.5,263.15 240.5,262.82C240.5,262.49 240.5,262.16 240.5,261.83C240.5,261.5 240.5,261.18 240.5,260.85C240.5,260.52 240.5,260.19 240.5,259.86C240.5,259.53 240.5,259.2 240.5,258.87C240.5,258.54 240.5,258.22 240.5,257.89C240.5,257.56 240.5,257.23 240.5,256.9C240.5,256.57 240.5,256.24 240.5,255.91C240.5,255.58 240.5,255.26 240.5,254.93C240.5,254.6 240.5,254.27 240.5,253.94C240.5,253.61 240.5,253.28 240.5,252.95C240.5,252.62 240.5,252.3 240.5,251.97C240.5,251.64 240.5,251.31 240.5,250.98C240.5,250.65 240.5,250.32 240.5,249.99C240.5,249.66 240.5,249.34 240.5,249.01C240.5,248.68 240.5,248.35 240.5,248.02C240.5,247.69 240.5,247.36 240.5,247.03C240.5,246.7 240.5,246.38 240.5,246.05C240.5,245.72 240.5,245.39 240.5,245.06C240.5,244.73 240.5,244.4 240.5,244.07C240.5,243.74 240.5,243.42 240.5,243.09C240.5,242.76 240.5,242.43 240.5,242.1C240.5,241.77 240.5,241.44 240.5,241.11C240.5,240.78 240.5,240.46 240.5,240.13C240.5,239.8 240.5,239.47 240.5,239.14C240.5,238.81 240.5,238.48 240.5,238.15C240.5,237.82 240.5,237.5 240.5,237.17C240.5,236.84 240.5,236.51 240.5,236.18C240.5,235.85 240.5,235.52 240.5,235.19C240.5,234.86 240.5,234.54 240.5,234.21C240.5,233.88 240.5,233.55 240.5,233.22C240.5,232.89 240.5,232.56 240.5,232.23C240.5,231.9 240.5,231.58 240.5,231.25C240.5,230.92 240.5,230.59 240.5,230.26C240.5,229.93 240.5,229.6 240.5,229.27C240.5,228.94 240.5,228.62 240.5,228.29C240.5,227.96 240.5,227.63 240.5,227.3C240.5,226.97 240.5,226.64 240.5,226.31C240.5,225.98 240.5,225.66 240.5,225.33C240.5,225 240.5,224.67 240.5,224.34C240.5,224.01 240.5,223.68 240.5,223.35C240.5,223.02 240.5,222.7 240.5,222.37C240.5,222.04 240.5,221.71 240.5,221.38C240.5,221.05 240.5,220.72 240.5,220.39C240.5,220.06 240.5,219.74 240.5,219.41C240.5,219.08 240.5,218.75 240.5,218.42C240.5,218.09 240.5,217.76 240.5,217.43C240.5,217.1 240.5,216.78 240.5,216.45C240.5,216.12 240.5,215.79 240.5,215.46C240.5,215.13 240.5,214.8 240.5,214.47C240.5,214.14 240.5,213.82 240.5,213.49C240.5,213.16 240.5,212.83 240.5,212.5C240.5,212.17 240.5,211.84 240.5,211.51C240.5,211.18 240.5,210.86 240.5,210.53C240.5,210.2 240.5,209.87 240.5,209.54C240.5,209.21 240.5,208.88 240.5,208.55C240.5,208.22 240.5,207.9 240.5,207.57C240.5,207.24 240.5,206.91 240.5,206.58C240.5,206.25 240.5,205.92 240.5,205.59C240.5,205.26 240.5,204.94 240.5,204.61C240.5,204.28 240.5,203.95 240.5,203.62C240.5,203.29 240.5,202.96 240.5,202.63C240.5,202.3 240.5,201.98 240.5,201.65C240.5,201.32 240.5,200.99 240.5,200.66C240.5,200.33 240.5,200 240.5,199.67C240.5,199.34 240.5,199.02 240.5,198.69C240.5,198.36 240.5,198.03 240.5,197.7C240.5,197.37 240.5,197.04 240.5,196.71C240.5,196.38 240.5,196.06 240.5,195.73C240.5,195.4 240.5,195.07 240.5,194.74C240.5,194.41 240.5,194.08 240.5,193.75C240.5,193.42 240.5,193.1 240.5,192.77C240.5,192.44 240.5,192.11 240.5,191.78C240.5,191.45 240.5,191.12 240.5,190.79C240.5,190.46 240.5,190.14 240.5,189.81C240.5,189.48 240.5,189.15 240.5,188.82C240.5,188.49 240.5,188.16 240.5,187.83C240.5,187.5 240.5,187.18 240.5,186.85C240.5,186.52 240.5,186.19 240.5,185.86C240.5,185.53 240.5,185.2 240.5,184.87C240.5,184.54 240.5,184.22 240.5,183.89C240.5,183.56 240.5,183.23 240.5,182.9C240.5,182.57 240.5,182.24 240.5,181.91C240.5,181.58 240.5,181.26 240.5,180.93C240.5,180.6 240.5,180.27 240.5,179.94C240.5,179.61 240.5,179.28 240.5,178.95C240.5,178.62 240.5,178.29 240.5,177.96C240.5,177.63 240.5,177.31 240.5,176.98C240.5,176.65 240.5,176.32 240.5,175.99C240.5,175.66 240.5,175.33 240.5,175C240.5,174.67 240.5,174.35 240.5,174.02C240.5,173.69 240.51,173.36 240.51,173.03C240.51,172.7 240.51,172.37 240.52,172.04C240.52,171.71 240.53,171.39 240.54,171.06C240.55,170.73 240.56,170.4 240.57,170.07C240.59,169.74 240.6,169.41 240.63,169.08C240.65,168.75 240.69,168.43 240.72,168.1C240.75,167.77 240.79,167.44 240.82,167.11C240.85,166.78 240.89,166.45 240.92,166.12C240.95,165.79 240.98,165.47 241,165.14C241.02,164.81 241.02,164.48 241.02,164.15C241.02,163.82 241.02,163.49 241,163.16C240.98,162.83 240.95,162.51 240.92,162.18C240.89,161.85 240.85,161.52 240.82,161.19C240.79,160.86 240.75,160.53 240.72,160.2C240.69,159.87 240.65,159.55 240.63,159.22Q240.6,158.89 240.57,158.23L240.43,158.23Q240.4,158.89 240.37,159.22C240.35,159.55 240.31,159.87 240.28,160.2C240.25,160.53 240.21,160.86 240.18,161.19C240.15,161.52 240.11,161.85 240.08,162.18C240.05,162.51 240.02,162.83 240,163.16C239.98,163.49 239.98,163.82 239.98,164.15C239.98,164.48 239.98,164.81 240,165.14C240.02,165.47 240.05,165.79 240.08,166.12C240.11,166.45 240.15,166.78 240.18,167.11C240.21,167.44 240.25,167.77 240.28,168.1C240.31,168.43 240.35,168.75 240.37,169.08C240.4,169.41 240.41,169.74 240.43,170.07C240.44,170.4 240.45,170.73 240.46,171.06C240.47,171.39 240.48,171.71 240.48,172.04C240.49,172.37 240.49,172.7 240.49,173.03C240.49,173.36 240.5,173.69 240.5,174.02C240.5,174.35 240.5,174.67 240.5,175C240.5,175.33 240.5,175.66 240.5,175.99C240.5,176.32 240.5,176.65 240.5,176.98C240.5,177.31 240.5,177.63 240.5,177.96C240.5,178.29 240.5,178.62 240.5,178.95C240.5,179.28 240.5,179.61 240.5,179.94C240.5,180.27 240.5,180.6 240.5,180.93C240.5,181.26 240.5,181.58 240.5,181.91C240.5,182.24 240.5,182.57 240.5,182.9C240.5,183.23 240.5,183.56 240.5,183.89C240.5,184.22 240.5,184.54 240.5,184.87C240.5,185.2 240.5,185.53 240.5,185.86C240.5,186.19 240.5,186.52 240.5,186.85C240.5,187.18 240.5,187.5 240.5,187.83C240.5,188.16 240.5,188.49 240.5,188.82C240.5,189.15 240.5,189.48 240.5,189.81C240.5,190.14 240.5,190.46 240.5,190.79C240.5,191.12 240.5,191.45 240.5,191.78C240.5,192.11 240.5,192.44 240.5,192.77C240.5,193.1 240.5,193.42 240.5,193.75C240.5,194.08 240.5,194.41 240.5,194.74C240.5,195.07 240.5,195.4 240.5,195.73C240.5,196.06 240.5,196.38 240.5,196.71C240.5,197.04 240.5,197.37 240.5,197.7C240.5,198.03 240.5,198.36 240.5,198.69C240.5,199.02 240.5,199.34 240.5,199.67C240.5,200 240.5,200.33 240.5,200.66C240.5,200.99 240.5,201.32 240.5,201.65C240.5,201.98 240.5,202.3 240.5,202.63C240.5,202.96 240.5,203.29 240.5,203.62C240.5,203.95 240.5,204.28 240.5,204.61C240.5,204.94 240.5,205.26 240.5,205.59C240.5,205.92 240.5,206.25 240.5,206.58C240.5,206.91 240.5,207.24 240.5,207.57C240.5,207.9 240.5,208.22 240.5,208.55C240.5,208.88 240.5,209.21 240.5,209.54C240.5,209.87 240.5,210.2 240.5,210.53C240.5,210.86 240.5,211.18 240.5,211.51C240.5,211.84 240.5,212.17 240.5,212.5C240.5,212.83 240.5,213.16 240.5,213.49C240.5,213.82 240.5,214.14 240.5,214.47C240.5,214.8 240.5,215.13 240.5,215.46C240.5,215.79 240.5,216.12 240.5,216.45C240.5,216.78 240.5,217.1 240.5,217.43C240.5,217.76 240.5,218.09 240.5,218.42C240.5,218.75 240.5,219.08 240.5,219.41C240.5,219.74 240.5,220.06 240.5,220.39C240.5,220.72 240.5,221.05 240.5,221.38C240.5,221.71 240.5,222.04 240.5,222.37C240.5,222.7 240.5,223.02 240.5,223.35C240.5,223.68 240.5,224.01 240.5,224.34C240.5,224.67 240.5,225 240.5,225.33C240.5,225.66 240.5,225.98 240.5,226.31C240.5,226.64 240.5,226.97 240.5,227.3C240.5,227.63 240.5,227.96 240.5,228.29C240.5,228.62 240.5,228.94 240.5,229.27C240.5,229.6 240.5,229.93 240.5,230.26C240.5,230.59 240.5,230.92 240.5,231.25C240.5,231.58 240.5,231.9 240.5,232.23C240.5,232.56 240.5,232.89 240.5,233.22C240.5,233.55 240.5,233.88 240.5,234.21C240.5,234.54 240.5,234.86 240.5,235.19C240.5,235.52 240.5,235.85 240.5,236.18C240.5,236.51 240.5,236.84 240.5,237.17C240.5,237.5 240.5,237.82 240.5,238.15C240.5,238.48 240.5,238.81 240.5,239.14C240.5,239.47 240.5,239.8 240.5,240.13C240.5,240.46 240.5,240.78 240.5,241.11C240.5,241.44 240.5,241.77 240.5,242.1C240.5,242.43 240.5,242.76 240.5,243.09C240.5,243.42 240.5,243.74 240.5,244.07C240.5,244.4 240.5,244.73 240.5,245.06C240.5,245.39 240.5,245.72 240.5,246.05C240.5,246.38 240.5,246.7 240.5,247.03C240.5,247.36 240.5,247.69 240.5,248.02C240.5,248.35 240.5,248.68 240.5,249.01C240.5,249.34 240.5,249.66 240.5,249.99C240.5,250.32 240.5,250.65 240.5,250.98C240.5,251.31 240.5,251.64 240.5,251.97C240.5,252.3 240.5,252.62 240.5,252.95C240.5,253.28 240.5,253.61 240.5,253.94C240.5,254.27 240.5,254.6 240.5,254.93C240.5,255.26 240.5,255.58 240.5,255.91C240.5,256.24 240.5,256.57 240.5,256.9C240.5,257.23 240.5,257.56 240.5,257.89C240.5,258.22 240.5,258.54 240.5,258.87C240.5,259.2 240.5,259.53 240.5,259.86C240.5,260.19 240.5,260.52 240.5,260.85C240.5,261.18 240.5,261.5 240.5,261.83C240.5,262.16 240.5,262.49 240.5,262.82C240.5,263.15 240.5,263.48 240.5,263.81C240.5,264.14 240.5,264.46 240.5,264.79C240.5,265.12 240.5,265.45 240.5,265.78C240.5,266.11 240.5,266.44 240.5,266.77C240.5,267.1 240.5,267.42 240.5,267.75C240.5,268.08 240.5,268.41 240.5,268.74C240.5,269.07 240.5,269.4 240.5,269.73C240.5,270.06 240.5,270.38 240.5,270.71C240.5,271.04 240.5,271.37 240.5,271.7C240.5,272.03 240.5,272.36 240.5,272.69C240.5,273.02 240.49,273.34 240.49,273.67C240.49,274 240.49,274.33 240.49,274.66C240.49,274.99 240.47,275.32 240.46,275.65C240.45,275.98 240.44,276.3 240.42,276.63C240.4,276.96 240.38,277.29 240.35,277.62C240.32,277.95 240.28,278.28 240.23,278.61C240.18,278.94 240.12,279.26 240.06,279.59C240,279.92 239.93,280.25 239.86,280.58C239.79,280.91 239.71,281.24 239.64,281.57C239.57,281.9 239.5,282.22 239.44,282.55C239.38,282.88 239.34,283.21 239.3,283.54C239.27,283.87 239.24,284.2 239.23,284.53C239.22,284.86 239.23,285.18 239.25,285.51C239.27,285.84 239.31,286.17 239.35,286.5C239.39,286.83 239.44,287.16 239.5,287.49C239.55,287.82 239.62,288.14 239.68,288.47C239.74,288.8 239.8,289.13 239.86,289.46C239.91,289.79 239.97,290.12 240.01,290.45C240.05,290.78 240.08,291.1 240.09,291.43C240.1,291.76 240.1,292.09 240.08,292.42C240.06,292.75 240.02,293.08 239.96,293.41C239.9,293.74 239.82,294.06 239.73,294.39C239.64,294.72 239.53,295.05 239.42,295.38C239.31,295.71 239.19,296.04 239.08,296.37C238.98,296.7 238.87,297.02 238.79,297.35C238.71,297.68 238.65,298.01 238.62,298.34C238.59,298.67 238.58,299 238.6,299.33C238.62,299.66 238.67,299.98 238.73,300.31C238.79,300.64 238.88,300.97 238.97,301.3C239.06,301.63 239.16,301.96 239.25,302.29C239.34,302.62 239.44,302.94 239.51,303.27C239.58,303.6 239.63,303.93 239.67,304.26C239.71,304.59 239.73,304.92 239.74,305.25C239.75,305.58 239.73,305.9 239.71,306.23C239.69,306.56 239.65,306.89 239.61,307.22C239.57,307.55 239.52,307.88 239.46,308.21C239.41,308.54 239.35,308.86 239.28,309.19C239.21,309.52 239.13,309.85 239.05,310.18C238.97,310.51 238.89,310.84 238.8,311.17C238.72,311.5 238.62,311.82 238.54,312.15C238.45,312.48 238.37,312.81 238.29,313.14C238.21,313.47 238.13,313.8 238.06,314.13C237.99,314.46 237.93,314.78 237.87,315.11C237.81,315.44 237.75,315.77 237.71,316.1C237.67,316.43 237.64,316.76 237.61,317.09C237.58,317.42 237.56,317.74 237.55,318.07C237.54,318.4 237.54,318.73 237.53,319.06C237.53,319.39 237.53,319.72 237.52,320.05C237.51,320.38 237.51,320.7 237.48,321.03C237.45,321.36 237.41,321.69 237.35,322.02C237.29,322.35 237.21,322.68 237.1,323.01C236.99,323.34 236.87,323.67 236.71,323.99C236.55,324.33 236.36,324.66 236.14,324.98C235.91,325.32 235.65,325.65 235.36,325.97C235.05,326.31 234.71,326.63 234.33,326.95C233.92,327.29 233.47,327.62 232.99,327.94C232.48,328.28 231.93,328.61 231.37,328.93C230.78,329.27 230.16,329.59 229.54,329.91C228.91,330.24 228.26,330.57 227.61,330.9C226.96,331.23 226.31,331.56 225.66,331.89C225.02,332.22 224.38,332.54 223.75,332.87C223.13,333.2 222.51,333.53 221.9,333.86C221.3,334.19 220.7,334.51 220.14,334.85C219.6,335.17 219.06,335.48 218.59,335.83C218.16,336.14 217.72,336.46 217.43,336.82C217.18,337.13 216.93,337.47 216.9,337.81C216.87,338.13 217,338.49 217.21,338.79C217.47,339.17 217.99,339.48 218.5,339.78C219.12,340.15 219.91,340.46 220.71,340.77C221.61,341.12 222.64,341.43 223.65,341.75C224.72,342.09 225.86,342.41 226.97,342.74C228.08,343.07 229.23,343.39 230.31,343.73C231.34,344.05 232.38,344.37 233.33,344.71C234.2,345.03 235.05,345.35 235.81,345.7C236.48,346.01 237.12,346.34 237.66,346.69C238.13,347 238.56,347.32 238.91,347.67C239.22,347.98 239.48,348.32 239.69,348.66Q239.88,348.98 240.12,349.65Z" style="vector-effect: non-scaling-stroke; stroke-width: 2px; stroke: rgb(239, 85, 59); stroke-opacity: 1; fill: rgb(239, 85, 59); fill-opacity: 0.5;"/><path class="box" d="M230.68,335.45H250.32M230.68,339.1H250.32V329.6H230.68ZM240.5,339.1V343.71M240.5,329.6V315.94" style="vector-effect: non-scaling-stroke; stroke-width: 2px; stroke: rgb(239, 85, 59); stroke-opacity: 1; fill: rgb(239, 85, 59); fill-opacity: 0.5;"/><g class="points"><path class="point" transform="translate(240.5,314.62)" d="M3,0A3,3 0 1,1 0,-3A3,3 0 0,1 3,0Z" style="opacity: 1; stroke-width: 0px; fill: rgb(239, 85, 59); fill-opacity: 1;"/><path class="point" transform="translate(240.5,313)" d="M3,0A3,3 0 1,1 0,-3A3,3 0 0,1 3,0Z" style="opacity: 1; stroke-width: 0px; fill: rgb(239, 85, 59); fill-opacity: 1;"/><path class="point" transform="translate(240.5,311.54)" d="M3,0A3,3 0 1,1 0,-3A3,3 0 0,1 3,0Z" style="opacity: 1; stroke-width: 0px; fill: rgb(239, 85, 59); fill-opacity: 1;"/><path class="point" transform="translate(240.5,307.49)" d="M3,0A3,3 0 1,1 0,-3A3,3 0 0,1 3,0Z" style="opacity: 1; stroke-width: 0px; fill: rgb(239, 85, 59); fill-opacity: 1;"/><path class="point" transform="translate(240.5,300.63)" d="M3,0A3,3 0 1,1 0,-3A3,3 0 0,1 3,0Z" style="opacity: 1; stroke-width: 0px; fill: rgb(239, 85, 59); fill-opacity: 1;"/><path class="point" transform="translate(240.5,299.71)" d="M3,0A3,3 0 1,1 0,-3A3,3 0 0,1 3,0Z" style="opacity: 1; stroke-width: 0px; fill: rgb(239, 85, 59); fill-opacity: 1;"/><path class="point" transform="translate(240.5,298.04)" d="M3,0A3,3 0 1,1 0,-3A3,3 0 0,1 3,0Z" style="opacity: 1; stroke-width: 0px; fill: rgb(239, 85, 59); fill-opacity: 1;"/><path class="point" transform="translate(240.5,297.33)" d="M3,0A3,3 0 1,1 0,-3A3,3 0 0,1 3,0Z" style="opacity: 1; stroke-width: 0px; fill: rgb(239, 85, 59); fill-opacity: 1;"/><path class="point" transform="translate(240.5,287.63)" d="M3,0A3,3 0 1,1 0,-3A3,3 0 0,1 3,0Z" style="opacity: 1; stroke-width: 0px; fill: rgb(239, 85, 59); fill-opacity: 1;"/><path class="point" transform="translate(240.5,284.6)" d="M3,0A3,3 0 1,1 0,-3A3,3 0 0,1 3,0Z" style="opacity: 1; stroke-width: 0px; fill: rgb(239, 85, 59); fill-opacity: 1;"/><path class="point" transform="translate(240.5,282.75)" d="M3,0A3,3 0 1,1 0,-3A3,3 0 0,1 3,0Z" style="opacity: 1; stroke-width: 0px; fill: rgb(239, 85, 59); fill-opacity: 1;"/><path class="point" transform="translate(240.5,164.17)" d="M3,0A3,3 0 1,1 0,-3A3,3 0 0,1 3,0Z" style="opacity: 1; stroke-width: 0px; fill: rgb(239, 85, 59); fill-opacity: 1;"/></g></g><g class="trace violins" style="opacity: 1;"><path class="violin" d="M400.92,389.35Q400.97,383.96 401.01,381.26C401.05,378.56 401.11,375.87 401.17,373.17C401.24,370.47 401.31,367.78 401.4,365.08C401.49,362.38 401.61,359.69 401.72,356.99C401.84,354.29 401.97,351.6 402.09,348.9C402.22,346.2 402.35,343.51 402.47,340.81C402.59,338.11 402.71,335.42 402.82,332.72C402.92,330.02 403.02,327.33 403.1,324.63C403.18,321.93 403.23,319.24 403.28,316.54C403.33,313.84 403.36,311.15 403.38,308.45C403.4,305.75 403.41,303.06 403.41,300.36C403.41,297.66 403.41,294.97 403.4,292.27C403.39,289.57 403.38,286.88 403.37,284.18C403.36,281.48 403.34,278.79 403.32,276.09C403.3,273.39 403.29,270.7 403.26,268C403.23,265.3 403.2,262.61 403.16,259.91C403.12,257.21 403.08,254.52 403.03,251.82C402.98,249.12 402.93,246.42 402.88,243.72C402.83,241.02 402.77,238.33 402.71,235.63C402.65,232.93 402.59,230.24 402.53,227.54C402.47,224.84 402.41,222.15 402.35,219.45C402.29,216.75 402.23,214.06 402.17,211.36C402.11,208.66 402.05,205.97 401.99,203.27C401.93,200.57 401.87,197.88 401.82,195.18C401.77,192.48 401.72,189.79 401.67,187.09C401.63,184.39 401.59,181.7 401.55,179C401.52,176.3 401.48,173.61 401.46,170.91C401.44,168.21 401.43,165.52 401.41,162.82C401.4,160.12 401.38,157.43 401.37,154.73C401.36,152.03 401.35,149.34 401.34,146.64C401.33,143.94 401.32,141.25 401.3,138.55C401.28,135.85 401.26,133.16 401.24,130.46C401.22,127.76 401.2,125.07 401.18,122.37C401.16,119.67 401.14,116.98 401.12,114.28C401.1,111.58 401.09,108.89 401.07,106.19C401.06,103.49 401.04,100.8 401.03,98.1C401.02,95.4 401,92.71 400.99,90.01C400.98,87.31 400.96,84.62 400.95,81.92C400.94,79.22 400.93,76.53 400.92,73.83C400.91,71.13 400.9,68.43 400.89,65.73C400.88,63.03 400.88,60.34 400.87,57.64C400.86,54.94 400.86,52.25 400.85,49.55Q400.85,46.85 400.84,41.46L400.82,41.46Q400.81,46.85 400.81,49.55C400.81,52.25 400.81,54.94 400.8,57.64C400.79,60.34 400.78,63.03 400.77,65.73C400.76,68.43 400.76,71.13 400.75,73.83C400.74,76.53 400.73,79.22 400.72,81.92C400.71,84.62 400.69,87.31 400.68,90.01C400.67,92.71 400.65,95.4 400.64,98.1C400.63,100.8 400.62,103.49 400.6,106.19C400.58,108.89 400.56,111.58 400.54,114.28C400.52,116.98 400.5,119.67 400.48,122.37C400.46,125.07 400.44,127.76 400.42,130.46C400.4,133.16 400.39,135.85 400.37,138.55C400.36,141.25 400.34,143.94 400.33,146.64C400.32,149.34 400.3,152.03 400.29,154.73C400.28,157.43 400.27,160.12 400.26,162.82C400.24,165.52 400.22,168.21 400.2,170.91C400.18,173.61 400.15,176.3 400.12,179C400.09,181.7 400.04,184.39 400,187.09C399.95,189.79 399.9,192.48 399.85,195.18C399.8,197.88 399.74,200.57 399.68,203.27C399.62,205.97 399.56,208.66 399.5,211.36C399.44,214.06 399.38,216.75 399.32,219.45C399.26,222.15 399.2,224.84 399.14,227.54C399.08,230.24 399.02,232.93 398.96,235.63C398.9,238.33 398.84,241.02 398.79,243.72C398.74,246.42 398.69,249.12 398.64,251.82C398.59,254.52 398.55,257.21 398.51,259.91C398.47,262.61 398.44,265.3 398.41,268C398.38,270.7 398.36,273.39 398.34,276.09C398.32,278.79 398.31,281.48 398.3,284.18C398.29,286.88 398.28,289.57 398.27,292.27C398.26,294.97 398.26,297.66 398.26,300.36C398.26,303.06 398.27,305.75 398.29,308.45C398.31,311.15 398.34,313.84 398.38,316.54C398.43,319.24 398.48,321.93 398.56,324.63C398.64,327.33 398.74,330.02 398.84,332.72C398.95,335.42 399.07,338.11 399.19,340.81C399.31,343.51 399.45,346.2 399.58,348.9C399.71,351.6 399.84,354.29 399.95,356.99C400.06,359.69 400.17,362.38 400.26,365.08C400.35,367.78 400.43,370.47 400.5,373.17C400.56,375.87 400.61,378.56 400.65,381.26Q400.69,383.96 400.74,389.35Z" style="vector-effect: non-scaling-stroke; stroke-width: 2px; stroke: rgb(0, 204, 150); stroke-opacity: 1; fill: rgb(0, 204, 150); fill-opacity: 0.5;"/><path class="box" d="M391.01,272.21H410.65M391.01,311.01H410.65V232.8H391.01ZM400.83,311.01V340.47M400.83,232.8V135.15" style="vector-effect: non-scaling-stroke; stroke-width: 2px; stroke: rgb(0, 204, 150); stroke-opacity: 1; fill: rgb(0, 204, 150); fill-opacity: 0.5;"/><g class="points"><path class="point" transform="translate(400.83,105.36)" d="M3,0A3,3 0 1,1 0,-3A3,3 0 0,1 3,0Z" style="opacity: 1; stroke-width: 0px; fill: rgb(0, 204, 150); fill-opacity: 1;"/><path class="point" transform="translate(400.83,90.34)" d="M3,0A3,3 0 1,1 0,-3A3,3 0 0,1 3,0Z" style="opacity: 1; stroke-width: 0px; fill: rgb(0, 204, 150); fill-opacity: 1;"/></g></g></g></g><g class="overplot"/><path class="xlines-above crisp" d="M0,0" style="fill: none;"/><path class="ylines-above crisp" d="M0,0" style="fill: none;"/><g class="overlines-above"/><g class="xaxislayer-above"><g class="xtick"><text text-anchor="middle" x="0" y="433" transform="translate(160.17000000000002,0)" style="font-family: 'Open Sans', verdana, arial, sans-serif; font-size: 12px; fill: rgb(42, 63, 95); fill-opacity: 1; white-space: pre; opacity: 1;">Full Info + LP</text></g><g class="xtick"><text text-anchor="middle" x="0" y="433" transform="translate(320.5,0)" style="font-family: 'Open Sans', verdana, arial, sans-serif; font-size: 12px; fill: rgb(42, 63, 95); fill-opacity: 1; white-space: pre; opacity: 1;">TE + LP</text></g><g class="xtick"><text text-anchor="middle" x="0" y="433" transform="translate(480.83,0)" style="font-family: 'Open Sans', verdana, arial, sans-serif; font-size: 12px; fill: rgb(42, 63, 95); fill-opacity: 1; white-space: pre; opacity: 1;">No Info + LP</text></g></g><g class="yaxislayer-above"><g class="ytick"><text text-anchor="end" x="79" y="4.199999999999999" transform="translate(0,420)" style="font-family: 'Open Sans', verdana, arial, sans-serif; font-size: 12px; fill: rgb(42, 63, 95); fill-opacity: 1; white-space: pre; opacity: 1;">0</text></g><g class="ytick"><text text-anchor="end" x="79" y="4.199999999999999" style="font-family: 'Open Sans', verdana, arial, sans-serif; font-size: 12px; fill: rgb(42, 63, 95); fill-opacity: 1; white-space: pre; opacity: 1;" transform="translate(0,348)">0.05</text></g><g class="ytick"><text text-anchor="end" x="79" y="4.199999999999999" style="font-family: 'Open Sans', verdana, arial, sans-serif; font-size: 12px; fill: rgb(42, 63, 95); fill-opacity: 1; white-space: pre; opacity: 1;" transform="translate(0,276)">0.1</text></g><g class="ytick"><text text-anchor="end" x="79" y="4.199999999999999" style="font-family: 'Open Sans', verdana, arial, sans-serif; font-size: 12px; fill: rgb(42, 63, 95); fill-opacity: 1; white-space: pre; opacity: 1;" transform="translate(0,204)">0.15</text></g><g class="ytick"><text text-anchor="end" x="79" y="4.199999999999999" style="font-family: 'Open Sans', verdana, arial, sans-serif; font-size: 12px; fill: rgb(42, 63, 95); fill-opacity: 1; white-space: pre; opacity: 1;" transform="translate(0,132)">0.2</text></g><g class="ytick"><text text-anchor="end" x="79" y="4.199999999999999" style="font-family: 'Open Sans', verdana, arial, sans-serif; font-size: 12px; fill: rgb(42, 63, 95); fill-opacity: 1; white-space: pre; opacity: 1;" transform="translate(0,60)">0.25</text></g></g><g class="overaxes-above"/></g></g><g class="polarlayer"/><g class="smithlayer"/><g class="ternarylayer"/><g class="geolayer"/><g class="funnelarealayer"/><g class="pielayer"/><g class="iciclelayer"/><g class="treemaplayer"/><g class="sunburstlayer"/><g class="glimages"/><defs id="topdefs-7c1a24"><g class="clips"/><clipPath id="legend7c1a24"><rect width="117" height="86" x="0" y="0"/></clipPath></defs><g class="layer-above"><g class="imagelayer"/><g class="shapelayer"/></g><g class="infolayer"><g class="legend" pointer-events="all" transform="translate(570.62,60)"><rect class="bg" shape-rendering="crispEdges" style="stroke: rgb(68, 68, 68); stroke-opacity: 1; fill: rgb(255, 255, 255); fill-opacity: 1; stroke-width: 0px;" width="117" height="86" x="0" y="0"/><g class="scrollbox" transform="" clip-path="url(#legend7c1a24)"><text class="legendtitletext" text-anchor="start" x="2" y="18.2" style="font-family: 'Open Sans', verdana, arial, sans-serif; font-size: 14px; fill: rgb(42, 63, 95); fill-opacity: 1; white-space: pre;">Method</text><g class="groups" transform=""><g class="traces" transform="translate(0,32.7)" style="opacity: 1;"><text class="legendtext" text-anchor="start" x="40" y="4.680000000000001" style="font-family: 'Open Sans', verdana, arial, sans-serif; font-size: 12px; fill: rgb(42, 63, 95); fill-opacity: 1; white-space: pre;">Full Info + LP</text><g class="layers" style="opacity: 1;"><g class="legendfill"/><g class="legendlines"/><g class="legendsymbols"><g class="legendpoints"><path class="legendbox" d="M6,6H-6V-6H6Z" transform="translate(20,0)" style="stroke-width: 2px; fill: rgb(99, 110, 250); fill-opacity: 0.5; stroke: rgb(99, 110, 250); stroke-opacity: 1;"/></g></g></g><rect class="legendtoggle" x="0" y="-9.5" width="111.046875" height="19" style="fill: rgb(0, 0, 0); fill-opacity: 0;"/></g></g><g class="groups" transform=""><g class="traces" transform="translate(0,51.7)" style="opacity: 1;"><text class="legendtext" text-anchor="start" x="40" y="4.680000000000001" style="font-family: 'Open Sans', verdana, arial, sans-serif; font-size: 12px; fill: rgb(42, 63, 95); fill-opacity: 1; white-space: pre;">TE + LP</text><g class="layers" style="opacity: 1;"><g class="legendfill"/><g class="legendlines"/><g class="legendsymbols"><g class="legendpoints"><path class="legendbox" d="M6,6H-6V-6H6Z" transform="translate(20,0)" style="stroke-width: 2px; fill: rgb(239, 85, 59); fill-opacity: 0.5; stroke: rgb(239, 85, 59); stroke-opacity: 1;"/></g></g></g><rect class="legendtoggle" x="0" y="-9.5" width="111.046875" height="19" style="fill: rgb(0, 0, 0); fill-opacity: 0;"/></g></g><g class="groups" transform=""><g class="traces" transform="translate(0,70.7)" style="opacity: 1;"><text class="legendtext" text-anchor="start" x="40" y="4.680000000000001" style="font-family: 'Open Sans', verdana, arial, sans-serif; font-size: 12px; fill: rgb(42, 63, 95); fill-opacity: 1; white-space: pre;">No Info + LP</text><g class="layers" style="opacity: 1;"><g class="legendfill"/><g class="legendlines"/><g class="legendsymbols"><g class="legendpoints"><path class="legendbox" d="M6,6H-6V-6H6Z" transform="translate(20,0)" style="stroke-width: 2px; fill: rgb(0, 204, 150); fill-opacity: 0.5; stroke: rgb(0, 204, 150); stroke-opacity: 1;"/></g></g></g><rect class="legendtoggle" x="0" y="-9.5" width="111.046875" height="19" style="fill: rgb(0, 0, 0); fill-opacity: 0;"/></g></g></g><rect class="scrollbar" rx="20" ry="3" width="0" height="0" style="fill: rgb(128, 139, 164); fill-opacity: 1;" x="0" y="0"/></g><g class="g-gtitle"/><g class="g-xtitle"><text class="xtitle" x="320.5" y="460.8" text-anchor="middle" style="font-family: 'Open Sans', verdana, arial, sans-serif; font-size: 14px; fill: rgb(42, 63, 95); opacity: 1; font-weight: normal; white-space: pre;">Method</text></g><g class="g-ytitle"><text class="ytitle" transform="rotate(-90,30.840625000000003,240)" x="30.840625000000003" y="240" text-anchor="middle" style="font-family: 'Open Sans', verdana, arial, sans-serif; font-size: 14px; fill: rgb(42, 63, 95); opacity: 1; font-weight: normal; white-space: pre;">Error</text></g></g></svg>